<svg width="208" height="60" viewBox="0 0 208 60" fill="none" xmlns="http://www.w3.org/2000/svg">
<path d="M117.389 24.9547C115.06 26.62 112.411 27.9947 109.871 29.3107C107.039 30.7787 104.1 31.9853 100.933 32.4627C98.8307 32.7787 94.472 33.2307 92.04 31.9373C99.2614 32.2973 106.148 29.856 112.656 26.8947C117.221 24.8173 122.391 21.1067 120.779 15.38C120.752 15.2853 120.695 15.2293 120.632 15.192C120.693 15.0653 120.76 14.944 120.816 14.8147C124.795 17.496 120.041 23.0587 117.389 24.9547ZM109.208 33.476C106.795 36.6907 104.115 39.5333 100.545 40.996C101.608 40.44 102.611 39.76 103.509 39.012C103.769 38.7947 103.432 38.3693 103.149 38.5453C99.6107 40.7293 96.0347 43.0587 91.7893 41.1107C91.6507 41.0467 91.528 41.1253 91.4774 41.2307C91.4574 41.2147 91.4453 41.192 91.4173 41.1827C88.656 40.284 87.264 38.1453 85.7947 35.784C85.6453 35.5413 85.2933 35.752 85.4173 36.004C85.8533 36.888 86.3654 37.8467 86.9827 38.7213C85.5894 37.4053 84.5 35.74 83.876 33.7827C83.2494 31.8173 82.8707 29.8547 82.0347 27.948C81.9614 27.78 81.88 27.62 81.804 27.4533C82.0827 27.744 82.3774 28.0187 82.6814 28.2813C82.8307 29.1787 83.1627 30.0507 83.4253 30.9173C83.8107 32.1867 84.2374 33.44 84.7414 34.668C84.876 34.996 85.3614 34.88 85.2827 34.5187C85.0014 33.2253 84.64 31.9533 84.2387 30.6933C84.0734 30.1733 83.9267 29.6347 83.7533 29.1067C84.608 29.7027 85.536 30.1947 86.5094 30.5907C86.508 30.604 86.496 30.6107 86.496 30.6253C86.5147 31.2907 86.6413 31.9613 87.0547 32.5C87.26 32.7707 87.7093 32.6267 87.6253 32.2587C87.5173 31.7853 87.368 31.324 87.252 30.8533C88.092 31.14 88.9534 31.372 89.84 31.5C91.4627 34.3733 97.1533 34.0627 99.8973 33.7947C104.572 33.3373 108.816 31.2654 112.843 28.972C111.527 30.3574 110.377 31.9187 109.208 33.476ZM75.812 15.1453C76.56 12.388 78.3667 10.2493 80.6987 8.79601C78.7893 11.204 77.6653 13.82 77.7587 16.8787C77.804 18.4 77.9027 19.916 77.7987 21.456C77.788 21.592 77.7693 21.7 77.7507 21.8054C76.0813 20.0854 74.9654 18.264 75.812 15.1453ZM88.4467 4.51601C90.2294 4.10668 91.9507 4.34668 93.6573 4.86134C93.6427 4.86401 93.6307 4.86402 93.616 4.86802C92.7027 5.12802 91.9667 5.74401 91.2507 6.33201C89.36 7.89068 87.7867 8.91067 85.5107 9.89201C82.0267 11.396 79.524 14.1933 78.8 17.6027C78.7987 17.5547 78.796 17.5054 78.796 17.4574C78.6573 12.6947 81.1987 8.57735 85.4827 5.92135C86.4054 5.34935 87.4214 4.92268 88.4467 4.51601ZM98.5774 3.53602C101.119 3.45602 103.412 2.76668 105.787 1.91068C109.433 0.593342 111.549 1.46269 114.111 4.08802C114.933 4.93202 115.687 5.69868 116.612 6.29468C115.984 6.19868 115.347 6.13201 114.719 6.06134C114.676 6.05468 114.633 6.05201 114.591 6.04801C114.571 5.99068 114.54 5.93468 114.48 5.89601C111.373 3.84268 107.04 3.55468 103.936 5.61201C103.82 5.68934 103.796 5.82002 103.815 5.94002C103.547 6.07202 103.272 6.19735 102.973 6.30402C101.736 6.73735 100.516 6.64536 99.3054 6.40802C99.2827 6.37602 99.2733 6.33735 99.2333 6.31601C97.444 5.39468 95.3254 4.16134 93.1694 3.49601C94.94 3.35868 96.6974 3.59602 98.5774 3.53602ZM115.769 21.7414C117.289 20.264 118.825 18.8347 120.104 17.136C120.168 17.0507 120.145 16.964 120.089 16.8933C120.137 16.8067 120.185 16.7173 120.228 16.6267C120.555 21.5813 116.223 24.3987 111.891 26.3347C113.137 24.748 114.295 23.1747 115.769 21.7414ZM103.877 20.2827C102.679 21.0653 100.976 21.4707 99.972 21.6427C99.6107 21.7067 97.016 22.0667 96.688 21.5787C95.348 19.584 98.3173 20.672 98.5653 20.7013C99.384 20.8013 100.073 20.5973 100.865 20.4173C101.447 20.2867 102.491 20.14 102.905 19.9947C103.008 19.96 103.095 19.9413 103.173 19.928C103.184 19.9453 103.193 19.964 103.204 19.9813C103.321 20.18 103.501 20.2213 103.664 20.18C103.735 20.216 103.805 20.2507 103.877 20.2827ZM95.2213 22.4894C93.1107 22.1894 88.9454 19.4907 93.812 17.5987C95.364 16.9947 96.916 18.0133 98.3973 18.2027C99.2733 18.316 99.7014 18.3 100.543 18.128C101.12 17.9587 101.685 17.7573 102.24 17.5267C103.583 16.7973 104.472 17.3947 104.909 19.308C104.8 19.4774 104.661 19.6347 104.511 19.7827C104.337 19.66 104.147 19.5693 103.947 19.4947C103.931 19.476 103.927 19.456 103.908 19.4387C103.801 19.3374 103.693 19.2373 103.585 19.136C103.463 19.0187 103.269 18.9867 103.119 19.076C103.263 18.9893 101.812 19.0587 102.163 19.0107C101.512 19.1013 100.907 19.4814 100.259 19.6227C98.8 19.9374 96.9533 18.8054 95.5627 19.4867C94.1573 20.1747 94.544 21.5587 95.6667 22.1933C96.0013 22.3813 96.3787 22.5 96.7707 22.5907C96.3454 22.6454 95.9147 22.6867 95.4867 22.7147C95.4453 22.604 95.3693 22.5107 95.2213 22.4894ZM93.9013 25.152C94 25.14 94.0973 25.1307 94.1933 25.1054C94.7187 26.112 95.6654 26.9973 96.6787 27.4013C96.288 27.4533 95.8853 27.4707 95.4853 27.4987C95.5013 27.4373 95.492 27.368 95.4467 27.2973C94.9747 26.5467 94.4267 25.8613 93.9013 25.152ZM93.1533 26.8907C93.3427 27.1454 93.7347 26.9307 93.5853 26.6387C93.3533 26.1814 93.0747 25.7867 92.764 25.412C92.7773 25.412 92.7893 25.4147 92.8013 25.4147C92.9133 25.4067 93.012 25.3747 93.116 25.3547C93.6427 26.1534 94.1894 26.9067 94.9094 27.5453C94.1854 27.5747 93.4574 27.5733 92.736 27.5187C92.6027 26.8453 92.3667 26.232 92.0667 25.6547C92.4547 26.044 92.8293 26.4534 93.1533 26.8907ZM95.4307 12.9507C94.488 13.2413 93.2827 13.816 92.596 14.5307C91.6293 15.536 91.6373 16.9147 90.696 18.064C90.6773 18.0867 90.6814 18.1147 90.6694 18.14C90.4574 18.4427 90.288 18.7707 90.228 19.1574C89.8653 21.5227 92.5893 23.028 94.596 23.2947C94.6027 23.3187 94.6094 23.3454 94.6147 23.3707C94.5307 23.2894 94.416 23.2373 94.2707 23.264C91.728 23.7493 90.3693 23.7907 88.7293 21.1867C86.6893 17.948 90.2093 15.0227 92.728 13.5054C93.7133 12.9134 94.8307 11.5747 95.776 11.1587C98.4214 9.99734 98.1774 11.8653 98.736 12.9027C97.62 12.8413 96.5267 12.6147 95.4307 12.9507ZM106.02 16.4093C105.313 15.8827 104.325 15.832 103.492 15.924C102.34 16.052 101.351 16.836 100.221 16.9627C98.616 17.14 97.1507 16.4347 95.6 16.3C94.78 16.2293 93.6707 16.3653 92.6653 16.7333C93.2133 15.7667 93.7014 14.7867 95.0467 14.2907C96.3867 13.7974 97.5493 14.0573 98.9307 13.9627C99.776 13.904 100.537 13.704 101.315 13.5734C101.667 13.6094 102.009 13.6587 102.336 13.7187C104.357 13.5347 107.169 14.1347 108.103 16.2813C108.884 18.0787 107.647 19.308 106.072 20.1587C107.093 19.0587 107.492 17.5053 106.02 16.4093ZM112.161 6.46802C114.893 8.70668 116.295 11.8294 113.753 14.9214C112.32 16.6667 110.399 17.9107 108.755 19.4293C108.567 19.604 108.808 19.908 109.027 19.7813C113.869 16.9933 118.457 10.8907 113.245 6.78001C115.583 7.96401 118.172 8.93868 117.304 12.1293C116.515 15.0347 114.259 17.1933 111.805 18.776C108.708 20.776 100.557 25.048 96.532 22.9973C101.445 23.336 111.48 21.0214 109.312 15.1054C108.28 12.2854 104.244 12.46 101.683 12.7747C101.031 12.784 100.379 12.8387 99.704 12.8973C99.692 12.8987 99.6773 12.8987 99.664 12.8987C101.331 9.89868 103.211 7.17069 105.961 6.09069C107.372 5.71335 108.741 5.66801 110.52 5.90934C110.589 5.91734 110.643 5.88935 110.697 5.86401C110.848 5.90001 110.992 5.92135 111.145 5.96535C111.485 6.05868 111.809 6.14934 112.137 6.24267C112.093 6.31201 112.083 6.40402 112.161 6.46802ZM91.4893 10.9293C92.384 10.4093 92.6827 9.42135 93.3387 8.66802C94.2867 7.57868 95.668 7.07067 97.0907 7.07601C97.5253 7.20267 97.9707 7.34669 98.4573 7.52269C99.3587 7.84935 99.7174 8.10136 100.743 8.04136C100.799 8.03869 100.852 8.02135 100.908 8.01468C101.444 7.99468 101.957 7.85736 102.467 7.57469C101.129 9.05069 100.169 10.8867 99.324 12.688C98.996 11.976 99.4533 10.792 98.7667 10.0747C98.1253 9.40402 97.3147 9.35201 96.48 9.64534C95.3374 10.048 94.6334 11.2854 93.676 11.9707C92.2547 12.988 90.7147 13.568 89.46 14.8307C87.7387 16.5667 86.4667 18.9173 87.6667 21.2973C87.7173 21.396 87.796 21.4813 87.8533 21.5773C87.8253 21.6507 87.824 21.7347 87.9027 21.812C88.0067 21.916 88.1107 22.02 88.2173 22.124C88.5053 22.488 88.8387 22.8253 89.2054 23.1307C90.3774 24.376 91.3867 25.7373 91.7973 27.42C86.7267 26.772 82.4214 23.972 84.148 18.488C84.3134 17.9627 84.5987 17.2027 84.7827 16.688C84.5534 14.952 85.2787 13.492 86.964 12.308C87.5453 12.032 88.124 11.7507 88.6973 11.4613C90.3787 10.436 91.0227 8.92268 92.1707 7.48401C92.8734 7.02802 93.592 6.68668 94.5 6.58402C94.8307 6.60802 95.152 6.64401 95.472 6.69468C94.8467 6.87068 94.2534 7.16001 93.748 7.59334C92.7507 8.44134 92.088 9.71068 91.2973 10.7374C91.2067 10.8547 91.3773 10.9947 91.4893 10.9293ZM80.9414 14.8267C82.484 12.272 84.76 11.448 87.3107 10.3173C88.34 9.86268 89.176 9.33068 89.9893 8.73068C89.492 9.42668 88.972 10.12 88.2067 10.6214C86.868 11.5 85.0774 11.8773 84.216 13.3667C81.8387 15.7813 80.612 19.0173 81.1787 22.416C81.2347 22.7533 81.7787 22.6707 81.772 22.3347C81.716 19.692 82.368 17.2 83.8427 15.1054C83.8387 15.256 83.8267 15.428 83.784 15.6534C83.4507 17.4534 83.1787 17.5467 82.876 18.8613C82.5134 20.432 82.4174 21.728 83.0747 23.2493C85.8 29.5507 96.6707 29.7774 101.992 26.3054C102.868 26.1227 103.748 25.8813 104.588 25.62C104.175 29.064 98.3147 29.6413 95.6427 30.2027C93.94 30.56 92.2347 30.7293 90.54 30.588C90.3894 30.48 90.1907 30.472 90.016 30.5267C89.1867 30.424 88.36 30.2547 87.5374 29.984C81.3814 27.96 77.3307 20.8053 80.9414 14.8267ZM105.152 28.956C103.387 29.5534 101.605 30.0667 99.8 30.436C100.643 30.1947 101.457 29.932 102.212 29.652C104.244 28.9027 105.613 27.5173 105.585 25.2987C106.789 24.8933 107.869 24.4827 108.661 24.208C109.057 24.0707 109.463 23.9147 109.867 23.7533C108.043 25.1107 106.388 26.6347 105.205 28.6253C105.136 28.7467 105.125 28.8587 105.152 28.956ZM110.073 25.7747C109.569 26.2427 109.143 26.848 108.919 27.5013C108.912 27.524 108.924 27.5413 108.923 27.564C108.788 27.6173 108.647 27.6733 108.516 27.7253C109.3 26.492 110.251 25.42 111.291 24.4293C111.22 24.524 111.144 24.6107 111.077 24.7054C110.895 24.964 111.28 25.2173 111.495 25.028C112.647 24.0067 113.62 22.8013 114.601 21.6173C115.241 21.148 115.871 20.668 116.491 20.1747C115.885 20.732 115.275 21.288 114.675 21.8547C113.284 23.1667 111.633 24.7627 111.132 26.6667C110.705 26.848 110.283 27.0214 109.865 27.1907C110.117 26.8534 110.355 26.504 110.564 26.1533C110.748 25.8427 110.329 25.5347 110.073 25.7747ZM120.708 10.8534C120.844 11.9 120.463 13.0467 120.064 13.9933C120.036 14.032 120.021 14.068 120.011 14.112C118.279 18.1213 114.345 20.7827 110.456 22.436C108.168 23.408 97.0613 27.8267 95.696 23.42C97.62 25.0853 100.572 24.1613 102.831 23.5133C106.637 22.42 110.877 20.904 114.011 18.4067C116.317 16.568 118.321 13.8027 118.433 10.7547C118.52 8.41602 116.785 7.60802 114.888 6.90535C115.061 6.93469 115.232 6.97201 115.411 6.99468C117.775 7.31201 120.243 7.24935 120.708 10.8534ZM121.091 14.1587C121.211 13.8267 121.316 13.4867 121.404 13.1387C121.851 11.348 121.767 9.33602 120.435 7.93602C119.792 7.26002 118.976 6.86667 118.088 6.60934C118.08 6.53067 118.052 6.45602 117.981 6.40802C114.424 3.95069 112.635 -0.833315 107.589 0.253351C104.068 1.01335 101.213 2.57334 97.448 2.49601C95.0467 2.44668 92.7934 2.06001 90.6014 3.03201C90.14 3.01735 89.6827 3.03735 89.232 3.11601C86.4427 3.60001 83.6667 5.55335 81.668 7.68268C78.32 9.25068 75.5827 12.148 74.788 15.8613C74.14 18.8907 75.576 21.612 77.82 23.4907C78.0747 24.0787 78.544 24.3827 78.98 24.7214C79.4467 25.6787 79.936 26.6293 80.404 27.604C81.744 30.4013 82.1173 33.5507 83.5267 36.2894C85.4947 40.108 89.544 42.664 93.776 43.116C98.1934 43.5867 102.653 41.856 105.919 38.92C110.119 35.1453 112.256 29.7027 117.096 26.548C117.183 26.492 117.224 26.4174 117.244 26.34C119.549 24.7827 121.608 22.9027 122.652 20.2667C123.555 17.9907 123.337 15.2547 121.091 14.1587Z" fill="white"/>
<path d="M110.725 5.95602C107.695 5.71202 104.337 7.13735 103.052 10.04C102.92 10.3387 103.284 10.7027 103.543 10.4187C105.492 8.27735 107.74 6.72668 110.725 6.61201C111.151 6.59601 111.143 5.98935 110.725 5.95602Z" fill="white"/>
<path d="M111.708 6.90401C110.352 7.74534 108.915 8.724 107.971 10.036C107.816 10.252 108.127 10.5667 108.343 10.408C109.613 9.47201 110.735 8.37999 112.072 7.52533C112.46 7.27599 112.104 6.65867 111.708 6.90401Z" fill="white"/>
<path d="M113.732 10.1253C113.635 9.79467 113.157 9.93467 113.22 10.2667C113.563 12.096 112.88 13.9013 111.635 15.232C111.421 15.4573 111.708 15.884 111.98 15.6813C113.747 14.372 114.345 12.196 113.732 10.1253Z" fill="white"/>
<path d="M116.808 10.2814C116.789 9.90802 116.227 9.90268 116.225 10.2814C116.22 12.284 115.444 13.7747 114.453 15.4507C114.303 15.704 114.637 15.9334 114.845 15.7534C116.368 14.4374 116.911 12.22 116.808 10.2814Z" fill="white"/>
<path d="M89.1294 29.2787C86.1987 28.5933 83.76 26.6907 82.528 23.9267C82.4094 23.66 81.952 23.8507 82.052 24.1293C83.1667 27.216 85.7827 29.424 89.0507 29.8613C89.3827 29.9067 89.4507 29.3547 89.1294 29.2787Z" fill="white"/>
<path d="M88.9347 4.72932C86.864 5.45999 84.38 6.61067 82.9987 8.38933C82.8413 8.592 83.032 8.88933 83.2827 8.75733C84.2813 8.23333 85.172 7.472 86.1413 6.88533C87.1147 6.296 88.1427 5.77866 89.176 5.30133C89.4947 5.152 89.2693 4.61199 88.9347 4.72932Z" fill="white"/>
<path d="M87.908 6.54667C86.9666 6.89467 86.0973 7.25601 85.3519 7.94001C85.0933 8.17734 85.4213 8.51201 85.6986 8.39068C86.548 8.02001 87.3106 7.512 88.14 7.09867C88.4426 6.94933 88.2306 6.428 87.908 6.54667Z" fill="white"/>
<path d="M82.2906 9.80135C81.2026 10.72 80.2013 11.8427 79.692 13.188C79.5746 13.4974 80.04 13.66 80.2053 13.4054C80.9533 12.248 81.6587 11.1347 82.6813 10.192C82.944 9.94801 82.5586 9.57469 82.2906 9.80135Z" fill="white"/>
<path d="M90.2667 11.3707C89.0534 11.8973 87.828 12.772 86.828 13.6387C85.9507 14.4014 85.2027 15.3267 85.1307 16.524C85.1134 16.7947 85.4841 16.8027 85.5694 16.584C86.5081 14.1747 88.732 13.3387 90.588 11.7894C90.84 11.5787 90.5187 11.2613 90.2667 11.3707Z" fill="white"/>
<path d="M93.14 10.244C92.6933 10.8307 92.1813 11.3773 91.636 11.8747C91.1267 12.3413 90.512 12.6813 90.02 13.16C89.8587 13.3187 90.0227 13.6093 90.2427 13.5427C91.6413 13.1213 92.856 11.704 93.644 10.5373C93.86 10.2213 93.3613 9.95333 93.14 10.244Z" fill="white"/>
<path d="M85.9066 23.5587C84.428 21.7307 84.9933 19.72 85.376 17.5893C85.4213 17.3307 85.0346 17.2147 84.9733 17.4787C84.5066 19.4933 83.544 22.44 85.636 23.9107C85.86 24.068 86.0546 23.7413 85.9066 23.5587Z" fill="white"/>
<path d="M88.984 25.616C87.7 24.584 86.6973 23.4733 86.208 21.8653C86.1053 21.528 85.5747 21.6707 85.676 22.0133C86.152 23.616 87.1786 25.2027 88.6866 26C88.92 26.124 89.2106 25.7987 88.984 25.616Z" fill="white"/>
<path d="M118.419 38.2894C116.888 35.6614 110.913 39.4 109.304 40.3134C106.835 41.7187 104.544 43.4187 102.411 45.2894C100.157 47.264 98.1867 49.5614 96.128 51.7414C94.7987 53.1494 93.4573 54.5734 92.3933 56.2014C91.92 56.9267 91.576 57.7094 91.0253 58.376C90.8307 58.612 90.4093 59.0454 90.4267 59.372C90.444 59.6734 90.7814 60.0067 91.0454 59.6934C92.1707 58.352 93.2293 56.972 94.288 55.5734C95.1653 54.412 96.052 53.24 97.1507 52.2827C98.032 51.5134 99.0347 50.8974 100.052 50.32C102.132 49.1427 104.359 47.952 106.653 47.3094C109.36 46.5507 112.136 45.216 114.559 43.8067C116.06 42.9347 118.805 41.3587 118.637 39.2707C118.665 38.9427 118.608 38.6134 118.419 38.2894Z" fill="white"/>
<path d="M92.7333 51.88C91.2786 50.1587 77.34 33.4334 75.136 38.5654C74.0093 41.1854 78.5013 45.1214 80.1866 46.5854C81.92 48.092 84.012 49.684 86.1866 50.4827C87.1333 50.8307 88.0333 51.2694 89.0226 51.5334C89.856 51.7574 90.704 51.936 91.5147 52.2374C91.76 52.328 92.2226 52.6867 92.4706 52.6427C92.8133 52.584 92.9493 52.136 92.7333 51.88Z" fill="white"/>
<path d="M199.879 24.796C195.807 27.012 189.816 27.3707 185.94 24.572C193.216 23.2947 200.181 20.8253 206.5 16.3013C205.484 19.9173 203.301 22.932 199.879 24.796ZM205.643 15.672C199.464 19.4747 192.945 22.3787 185.757 23.6813C191.753 18.868 197.775 15.612 205.643 15.672ZM175.464 16.584C178.117 13.9853 180.963 11.6147 183.708 9.12268C182.957 13.9733 179.772 17.1387 175.721 19.9533C173.717 21.3467 170.899 22.3107 168.784 23.7707C171.061 21.4413 173.139 18.86 175.464 16.584ZM172.385 14.104C175.421 10.8173 179.321 9.74001 183.397 8.60001C180.359 10.8053 177.561 13.3867 174.881 16.0027C172.592 18.236 170.08 20.5693 168.077 23.1533C168.832 19.812 169.875 16.8213 172.385 14.104ZM172.584 31.7627C174.021 33.276 175.227 35.028 176.107 36.92C176.628 38.0387 176.831 39.552 177.336 40.744C174.568 38.3787 171.725 36.096 168.905 33.7947C166.183 31.5707 163.216 29.448 161.639 26.2547C161.617 26.0773 161.585 25.9053 161.568 25.724C161.592 25.724 161.617 25.724 161.641 25.724C161.679 25.7573 161.704 25.8 161.759 25.8133C165.905 26.8787 169.592 28.6133 172.584 31.7627ZM166.237 35.9987C164.255 33.96 162.956 31.6747 162.217 29.1173C163.483 30.6627 165.055 31.9547 166.695 33.264C170.044 35.9413 173.38 38.6467 176.793 41.2467C173.169 42.264 168.429 38.2547 166.237 35.9987ZM154.237 15.9547C156.055 13.2507 157.948 9.09468 160.473 6.82001C160.712 7.04801 160.792 7.564 160.776 8.54667C160.755 9.83467 160.396 11.08 159.933 12.2653C159.123 14.3413 157.897 16.1333 156.46 17.8347C154.213 20.492 151.517 22.6387 148.552 24.412C150.447 21.5907 152.341 18.7733 154.237 15.9547ZM158.855 7.012C158.951 6.97467 159.028 6.94934 159.116 6.91734C157.344 8.65334 156.071 11.4987 154.855 13.3013C152.611 16.624 150.375 19.9533 148.136 23.28C148.805 16.7387 152.556 9.40534 158.855 7.012ZM154.099 40.796C149.384 36.5733 144.175 32.2293 138.869 28.756C146.124 29.5587 152.016 33.4933 154.099 40.796ZM143.279 36.8853C141.347 34.9053 139.881 32.6187 138.759 30.1307C143.293 34.2107 148.583 38.0347 153.605 41.416C150.027 43.1333 145.497 39.1613 143.279 36.8853ZM206.924 14.5973C198.913 14.18 189.339 17.1267 184.429 23.888C179.415 24.6693 174.341 24.78 169.268 24.7507C175.881 20.992 185.427 17.056 184.683 8.23734C185.069 8.12134 185.013 7.46001 184.58 7.50268C184.561 7.50534 184.541 7.50934 184.523 7.512C184.36 7.37334 184.117 7.40668 183.996 7.58668C175.712 8.67601 166.548 15.3827 167.072 24.548C167.029 24.6107 166.987 24.6707 166.947 24.7333C164.851 24.708 162.756 24.6747 160.667 24.664C156.888 24.648 152.999 24.7493 149.151 25.148C155.891 21.18 163.655 13.7093 161.281 5.48401C161.212 5.25067 160.925 5.04268 160.676 5.14135C152.631 8.31735 147.131 16.1107 147.165 24.764C147.125 24.8707 147.124 24.972 147.161 25.0613C147.163 25.124 147.157 25.1853 147.159 25.248C147.068 25.2973 146.983 25.356 146.891 25.404C146.88 25.4107 146.875 25.4187 146.864 25.4253C139.008 26.508 131.449 29.0133 125.491 34.5627C125.105 34.9213 125.676 35.4787 126.065 35.1373C129.38 32.2213 133.057 30.2107 136.947 28.8067C138.588 33.1547 141.215 36.9653 144.904 39.8347C147.611 41.94 151.405 44.2413 154.475 42.0133C154.779 42.4667 155.652 42.1613 155.493 41.52C153.68 34.2133 147.399 28.256 139.883 27.8587C146.372 26.052 153.349 25.7187 160.228 25.724C160.364 26.0867 160.512 26.4413 160.679 26.7773C161.083 31.308 163.672 35.3133 167.153 38.208C169.799 40.408 174.088 43.7 177.548 41.7973C177.687 41.86 177.829 41.8147 177.921 41.7027C178.144 41.86 178.479 41.8947 178.605 41.5947C178.629 41.5413 178.652 41.4867 178.676 41.432C178.784 41.176 178.708 40.8973 178.42 40.8067C178.383 40.7947 178.347 40.7827 178.308 40.7707C178.229 40.7467 178.145 40.7653 178.069 40.8013C178.305 40.2347 178.289 39.6653 177.996 39.0907C177.82 38.5093 177.616 37.936 177.383 37.3733C177.02 36.4893 176.595 35.632 176.108 34.808C175.079 33.068 173.781 31.4827 172.292 30.1147C170.148 28.144 167.608 26.5987 164.837 25.76C165.552 25.7707 166.267 25.7827 166.976 25.7933C172.917 25.8853 178.841 25.688 184.585 24.7973C184.589 24.8013 184.591 24.8053 184.595 24.8093C188.109 28.692 195.029 28.356 199.464 26.4147C204.131 24.3693 207.417 19.972 207.871 14.8933C207.917 14.3813 207.164 14.2227 206.924 14.5973Z" fill="white"/>
<path d="M47.2947 40.844C44.5173 43.7507 41.0307 45.6867 37.308 47.0667C39.1987 43.5907 42.228 41.1827 45.068 38.4827C47.5547 36.1187 49.572 33.4427 51.2373 30.476C51.108 34.396 50.2187 37.7854 47.2947 40.844ZM50.6107 30.3547C48.608 33.7734 46.108 36.6947 43.1413 39.3907C40.8733 41.452 38.6906 43.4707 37.12 46.064C38.848 39.0814 44.188 33.608 50.6107 30.3547ZM38.3693 7.27204C38.3693 7.26538 38.3693 7.25737 38.3693 7.25071C41.14 9.80537 43.444 12.5987 44.6733 16.24C45.308 18.1187 45.652 20.112 45.64 22.0987C45.6347 23.3267 45.6707 26.388 44.9053 27.848C43.4227 20.8987 40.732 13.972 38.3693 7.27204ZM38.5973 18.8667C37.7773 15.672 38.0733 12.684 38.264 9.59071C40.232 15.7654 41.9813 22.1267 44.4093 28.0907C41.4187 26.768 39.2427 21.3814 38.5973 18.8667ZM28.152 39.9747C26.0053 43.4614 22.8493 46.0934 19.156 47.7334C23.7547 43.176 27.4787 37.36 31.0693 31.8947C30.8987 32.536 30.768 33.2 30.6093 33.8934C30.12 36.0454 29.3107 38.092 28.152 39.9747ZM30.596 30.88C26.5547 36.4414 22.456 41.932 18.3267 47.4267C19.7187 39.9907 23.416 33.5867 30.596 30.88ZM28.6613 27.052C27.028 20.964 24.8373 14.1827 21.7147 8.57338C21.8187 8.60138 21.908 8.61204 22.032 8.6627C24.596 9.70004 26.8213 14.268 27.7133 16.6907C28.404 18.568 28.7707 20.544 28.8707 22.54C28.896 23.0654 28.7907 25.328 28.6613 27.052ZM28.5627 28.1947C28.5147 28.1814 28.464 28.1694 28.404 28.1747C28.38 28.176 28.3573 28.1774 28.3347 28.1787C28.304 28.1454 28.272 28.1134 28.224 28.0867C24.7987 26.192 23.164 22.6027 21.8973 19.0574C21.3013 17.388 20.8787 15.6894 20.6653 13.9294C20.5493 12.972 20.4627 12.044 20.52 11.0814C20.5773 10.1067 20.42 8.96137 20.944 8.61203C22.012 11.5467 23.3907 14.392 24.5013 17.3094C25.792 20.6987 26.86 24.1574 28.0587 27.5774C28.152 27.8427 28.4253 27.8614 28.604 27.7467C28.5907 27.9 28.5773 28.0614 28.5627 28.1947ZM1.872 13.9654C2.10667 12.9467 3.236 13.296 4.83466 13.792C6.12533 14.1934 7.36667 14.8827 8.508 15.592C11.416 17.4027 13.9733 19.8334 14.512 23.2627C9.82933 20.7507 5.85867 17.4947 1.872 13.9654ZM1.90133 15.2374C1.892 15.1894 1.89467 15.1574 1.888 15.1107C5.032 18.592 8.95334 21.5027 13.2227 23.8067C8.324 22.88 2.856 20.7454 1.90133 15.2374ZM63.836 34.0774C59.836 28.0187 52.6506 27.9347 45.556 28.4774C45.5306 28.4494 45.496 28.4374 45.4627 28.42C48.0147 20.5827 45.4813 11.2867 38.3813 6.6987C38.3813 6.66004 38.384 6.62271 38.384 6.58404C38.384 6.37337 38.1787 6.31203 38.036 6.39337C37.8053 6.03737 37.1613 6.24003 37.316 6.6947C37.408 6.96803 37.4946 7.24537 37.5853 7.51871C35.576 14.052 37.3013 25.0214 43.6947 28.6307C40.252 28.928 36.8986 29.264 34.0186 29.016C32.46 28.8814 30.9093 28.6734 29.3707 28.3947C30.496 26.14 29.7053 20.528 29.4053 19.1054C28.3253 13.9694 25.2387 9.68005 21.004 6.65738C20.736 6.46671 20.3613 6.67071 20.2787 6.95338C18.4587 13.084 20.312 23.308 25.9027 27.6307C22.5893 26.7907 19.356 25.6347 16.272 24.164C15.92 23.996 15.584 23.8107 15.2413 23.636C16.688 21.1654 12.4387 17.0907 10.7853 15.8467C7.87333 13.6534 4.58533 12.0427 0.883997 12.2467C0.575997 12.2627 0.296 12.4974 0.304 12.8254C0.472 20.284 8.15067 25.9174 15.34 24.884C19.408 26.8454 23.7107 28.2787 27.904 29.1667C27.988 29.2707 28.1067 29.3454 28.2453 29.3267C28.3013 29.3187 28.3453 29.2894 28.3987 29.2747C29.2773 29.452 30.1587 29.5934 31.04 29.7214C22.4093 31.5414 18.1147 40.796 16.988 48.8467C16.936 49.2187 17.2187 49.66 17.6547 49.5134C21.752 48.1254 25.296 45.6854 27.9293 42.2307C28.9627 40.876 29.8253 39.4107 30.5027 37.848C31.6133 35.288 31.7373 32.452 32.9907 29.964C36.7387 30.3534 40.5027 30.3307 44.2947 29.9894C46.0373 29.832 47.8227 29.676 49.596 29.624C46.4413 31.1227 43.412 33.944 41.34 36.1494C38.3227 39.3614 36.004 43.5454 36.064 48.0507C36.0693 48.3987 36.6467 48.5094 36.6987 48.1374C36.7053 48.084 36.7187 48.0347 36.7253 47.9827C44.6293 45.8254 53.864 38.808 52.2813 29.6454C56.44 29.8467 60.38 30.952 63.3787 34.4294C63.5933 34.68 64.0187 34.3534 63.836 34.0774Z" fill="white"/>
<path d="M89.604 39.2107C87.4053 37.0747 85.9693 34.5533 85.584 31.4813C85.548 31.1987 85.1187 31.1787 85.1253 31.4813C85.1973 34.6827 86.6507 37.7507 89.2627 39.6534C89.524 39.844 89.8293 39.4293 89.604 39.2107Z" fill="white"/>
<path d="M89.0493 36.088C88.7613 35.4627 88.4427 34.872 88.2413 34.208C88.14 33.8747 87.6213 34.016 87.7186 34.352C87.928 35.0733 88.2 35.7893 88.672 36.3787C88.8547 36.6067 89.1533 36.316 89.0493 36.088Z" fill="white"/>
<path d="M94.7987 40.3133C93.9707 40.0133 93.144 39.868 92.38 39.3893C91.58 38.8893 90.94 38.212 90.464 37.4013C90.276 37.0813 89.8067 37.3613 89.9694 37.6907C90.7867 39.3373 92.728 41.132 94.716 40.9173C95.06 40.88 95.136 40.436 94.7987 40.3133Z" fill="white"/>
<path d="M92.2666 37.212C90.6106 35.9427 89.4266 34.252 89.0186 32.1867C88.9639 31.9147 88.4986 31.972 88.5266 32.252C88.7546 34.52 89.9479 36.5973 91.9879 37.6907C92.3093 37.8613 92.5413 37.4227 92.2666 37.212Z" fill="white"/>
<path d="M99.9359 38.392C98.1093 38.7707 96.3479 38.944 94.5053 38.5547C94.1933 38.488 94.0826 38.916 94.3746 39.0267C96.2866 39.7507 98.3146 39.8573 100.213 39.048C100.605 38.8813 100.312 38.3133 99.9359 38.392Z" fill="white"/>
<path d="M98.3933 39.8467C97.784 40.0533 97.208 40.2867 96.5546 40.3053C96.2986 40.3107 96.2293 40.7 96.4933 40.764C97.2906 40.96 98.0466 40.904 98.7013 40.3773C98.9506 40.1787 98.6826 39.7493 98.3933 39.8467Z" fill="white"/>
<path d="M110.393 53.6107C108.828 52.348 106.692 52.8867 104.973 53.4947C103.121 54.1493 101.107 54.8227 99.4933 55.9733C98.7533 56.5013 98.1546 57.1947 97.5626 57.8827C97.4466 58.0173 97.3293 58.1547 97.2746 58.3227C97.2106 58.5173 97.2639 58.7333 97.4053 58.8707C98.3119 58.496 99.1373 57.9467 100.079 57.6147C100.987 57.2933 101.931 57.0667 102.887 56.9413C104.863 56.6853 106.795 56.656 108.748 56.2373C109.915 55.9867 111.933 54.8533 110.393 53.6107Z" fill="white"/>
</svg>
