<svg width="159" height="58" viewBox="0 0 159 58" fill="none" xmlns="http://www.w3.org/2000/svg">
<path d="M153.613 13.2813C151.815 12.5106 149.971 11.9293 148.064 11.5146C148.096 11.4453 148.137 11.3799 148.167 11.3093C151.195 8.87327 154.133 6.3346 156.861 3.5706C156.067 6.9586 155.017 10.2253 153.613 13.2813ZM151.083 17.9026C151.025 17.828 150.951 17.764 150.837 17.7293C149.249 17.2453 147.664 16.7506 146.084 16.2386C145.192 15.9493 144.124 15.4373 143.113 15.228C144.257 14.3493 145.408 13.484 146.541 12.5907C146.575 12.6013 146.597 12.62 146.636 12.6253C148.873 12.9346 151.057 13.4507 153.211 14.124C152.575 15.428 151.864 16.688 151.083 17.9026ZM145.131 24.7199C143.261 23.7813 141.353 22.9439 139.432 22.1173C138.44 21.6919 137.272 21.0026 136.127 20.6346C137.271 19.7346 138.413 18.8333 139.58 17.9453C140.3 17.3986 141.015 16.8373 141.736 16.288C141.749 16.3 141.751 16.3133 141.765 16.3253C141.931 16.46 142.136 16.4639 142.295 16.3813C142.783 16.3639 143.772 16.8186 144.172 16.9306C144.811 17.1093 145.453 17.2786 146.093 17.452C147.581 17.852 149.061 18.2707 150.54 18.696C149.031 20.896 147.237 22.9146 145.131 24.7199ZM142.32 26.8773C140.132 25.9066 137.915 24.9946 135.711 24.0546C135.011 23.756 134.112 23.1693 133.244 22.9333C133.747 22.5266 134.243 22.1119 134.751 21.7066C134.783 21.7119 134.807 21.728 134.843 21.7293C136.433 21.796 138.653 23.16 140.12 23.724C141.56 24.2773 142.997 24.8039 144.459 25.2866C143.776 25.8373 143.072 26.3733 142.32 26.8773ZM134.177 31.1293C132.771 30.6747 131.268 30.432 129.855 30.0213C128.653 29.672 127.453 29.148 126.223 28.8826C128.04 27.268 129.884 25.6906 131.756 24.144C131.94 24.3026 132.151 24.3106 132.364 24.2173C132.749 24.0493 134.323 24.916 134.819 25.0973C135.735 25.432 136.651 25.7613 137.565 26.096C138.829 26.5573 140.092 27.0186 141.361 27.4679C139.056 28.9213 136.645 30.1 134.177 31.1293ZM118.537 36.1213C119.164 35.5093 119.789 34.8959 120.415 34.2866C122.025 32.7106 123.665 31.188 125.324 29.6933C126.665 30.5187 128.393 30.8333 129.904 31.192C130.768 31.396 131.667 31.6239 132.571 31.7813C128.02 33.5359 123.277 34.8066 118.537 36.1213ZM120.947 26.716C121.209 28.192 121.493 29.664 121.837 31.1186C121.839 31.1226 121.841 31.1253 121.843 31.1293C120.516 32.4187 119.2 33.7239 117.887 35.0346C118.635 32.1439 119.66 29.36 120.947 26.716ZM121.667 25.316C121.828 26.0173 122.013 26.7146 122.199 27.4119C122.425 28.2626 122.532 29.256 123.057 29.972C122.869 30.1506 122.671 30.3173 122.483 30.4973C122.149 28.9586 121.76 27.432 121.343 25.9133C121.447 25.712 121.56 25.516 121.667 25.316ZM127.124 17.58C127.355 20.1506 127.879 22.7506 128.379 25.2666C126.816 26.584 125.272 27.924 123.772 29.3186C123.704 28.584 123.365 27.8453 123.164 27.1453C122.883 26.1733 122.613 25.1973 122.243 24.2573C123.612 21.868 125.255 19.6426 127.124 17.58ZM130.388 14.3679C130.472 15.6666 130.732 16.9573 130.944 18.2373C131.176 19.6359 131.268 21.152 131.811 22.4693C130.996 23.1226 130.18 23.7759 129.375 24.4426C128.977 21.8893 128.568 19.2573 127.847 16.7853C128.651 15.948 129.497 15.1399 130.388 14.3679ZM139.224 8.99195C139.399 11.2706 139.567 13.7733 140.136 15.9893C137.663 17.8826 135.189 19.7733 132.751 21.708C132.704 20.5573 132.38 19.3773 132.184 18.2627C131.912 16.728 131.711 15.152 131.217 13.672C133.715 11.6653 136.417 10.2026 139.224 8.99195ZM142.216 7.79599C142.356 9.83332 142.447 11.924 142.825 13.9186C142.236 14.3733 141.647 14.8306 141.056 15.2839C140.953 13.0826 140.481 10.7293 140.087 8.62262C140.791 8.33328 141.501 8.05999 142.216 7.79599ZM147.309 6.04794C147.431 6.95461 147.475 7.85594 147.407 8.7786C147.361 9.37727 147.227 9.96532 147.127 10.5573C145.987 11.4613 144.843 12.36 143.692 13.2493C143.595 11.3413 143.269 9.40931 142.997 7.51598C144.423 7.00531 145.864 6.52527 147.309 6.04794ZM156.208 2.79996C153.763 5.09196 151.209 7.25198 148.611 9.35465C148.691 8.13198 148.496 6.8466 148.227 5.7426C150.909 4.85327 153.593 3.94396 156.208 2.79996ZM109.735 48.5573C110.347 48.3453 110.968 48.1453 111.592 47.9546C110.797 49.064 109.963 50.16 109.232 51.3053C105.709 51.716 102.185 52.0253 98.6413 51.932C102.395 51.2307 105.963 49.872 109.735 48.5573ZM112.987 47.5973C112.996 47.584 112.996 47.5707 113.004 47.5573C113.441 47.444 113.883 47.3453 114.324 47.2546C113.307 48.4813 112.289 49.7333 111.392 51.044C111.087 51.0813 110.781 51.12 110.476 51.1573C111.391 50.0307 112.193 48.776 112.987 47.5973ZM115.393 47.064C117.172 46.7906 118.973 46.7519 120.765 47.1399C123.172 47.6613 125.275 48.9906 127.585 49.7866C127.563 49.7999 127.539 49.8146 127.516 49.828C122.524 49.64 117.584 50.2667 112.649 50.888C113.589 49.7067 114.48 48.4706 115.337 47.2399C115.377 47.1826 115.391 47.1226 115.393 47.064ZM123.277 52.188C122.963 51.704 122.492 51.2546 122.041 50.8386C123.484 50.7226 124.923 50.5826 126.372 50.4853C125.356 51.0693 124.323 51.64 123.277 52.188ZM118.4 52.5146C117.96 52.1026 117.543 51.6679 117.12 51.2399C118.407 51.1146 119.7 51.032 120.988 50.924C121.417 51.4387 121.857 52.1266 122.375 52.6306C121.54 53.0493 120.705 53.4719 119.853 53.8426C119.479 53.3306 118.841 52.9266 118.4 52.5146ZM117.86 54.652C117.379 54.0746 116.74 53.5959 116.208 53.0759C115.677 52.5546 115.176 52.0053 114.659 51.472C115.205 51.4133 115.752 51.3719 116.3 51.3173C116.741 51.9639 117.256 52.5519 117.801 53.1146C118.129 53.4546 118.507 53.8933 118.928 54.2186C118.572 54.364 118.22 54.5186 117.86 54.652ZM113.301 55.9267C111.943 54.8 110.785 53.4693 109.719 52.0666C109.767 52.06 109.813 52.0546 109.861 52.0466C110.445 51.964 111.027 51.9013 111.611 51.8253C111.708 51.8506 111.808 51.8426 111.9 51.7893C112.548 51.7066 113.195 51.64 113.843 51.5666C114.329 52.288 114.907 52.9467 115.495 53.588C115.915 54.0453 116.361 54.5813 116.861 55.0093C115.695 55.3946 114.509 55.7107 113.301 55.9267ZM109.112 56.2613C105.187 56.1413 102.231 54.492 98.7413 52.956C98.6999 52.9386 98.6599 52.9253 98.6199 52.908C102.069 53.0573 105.529 52.6479 108.955 52.1706C109.011 52.2493 109.095 52.308 109.187 52.3333C109.916 53.768 110.92 55.0146 112.107 56.0973C111.123 56.216 110.128 56.292 109.112 56.2613ZM96.1879 43.116C97.5133 43.1666 99.1599 43.016 100.448 42.496C99.4159 44.1787 98.2293 45.7627 96.8706 47.1987C95.9133 48.212 94.6773 49.0307 93.5639 49.9293C94.2986 47.572 95.1866 45.3253 96.1879 43.116ZM92.4373 50.9453C92.4119 50.9719 92.3799 50.9947 92.3546 51.0213C91.5493 47.8093 91.6106 44.7853 92.2653 41.9199C92.5013 42.1733 92.7466 42.42 92.9533 42.68C93.4479 43.3 93.8733 43.9839 94.3973 44.5813C93.5119 46.6386 92.7826 48.7573 92.4373 50.9453ZM93.3506 38.464C93.7426 38.8666 94.1346 39.268 94.4733 39.7267C94.9453 40.3613 95.3586 41.0306 95.7172 41.7333C95.3812 42.4013 95.0586 43.0787 94.7479 43.76C94.4706 43.1693 94.0813 42.6226 93.6906 42.1106C93.3586 41.6786 92.9946 41.1706 92.5546 40.8026C92.7813 40.012 93.0386 39.2306 93.3506 38.464ZM96.7559 32.3373C97.6679 33.2706 98.4519 34.288 99.2479 35.3253C98.4919 36.6146 97.7519 37.8693 97.1053 39.0746C96.7626 39.7146 96.4199 40.3653 96.0826 41.0213C95.5386 39.7626 94.7759 38.4387 93.7506 37.5267C94.5666 35.7307 95.5893 34.0026 96.7559 32.3373ZM98.1746 30.456C98.4093 30.7533 98.7039 31.0293 98.8999 31.2746C99.4199 31.9293 99.9319 32.5893 100.449 33.2466C100.189 33.7053 99.9253 34.1613 99.6613 34.6133C99.0306 33.5026 98.1933 32.4906 97.3093 31.5706C97.5853 31.1933 97.8853 30.8266 98.1746 30.456ZM104.281 23.6333C103.845 26.6693 102.424 29.6853 100.821 32.5746C100.415 31.9093 99.9919 31.2586 99.5293 30.628C99.3039 30.3226 99.0799 29.9426 98.7973 29.6546C100.505 27.5493 102.383 25.544 104.281 23.6333ZM104.773 25.4666C104.957 28.6906 104.584 31.908 103.712 35.0026C102.96 35.1146 102.211 35.2239 101.459 35.3733C100.997 35.4639 100.492 35.512 100.019 35.624C101.769 32.4773 103.776 29.0266 104.773 25.4666ZM102.239 39.1039C101.559 39.1466 100.883 39.188 100.203 39.292C99.7719 39.3573 99.3413 39.4253 98.9106 39.4907C98.7439 39.516 98.2533 39.6533 97.8359 39.7306C98.3546 38.7093 98.8959 37.6853 99.4546 36.6586C100.131 36.7213 100.832 36.4519 101.497 36.3039C102.167 36.1546 102.827 35.9906 103.484 35.816C103.136 36.932 102.72 38.0293 102.239 39.1039ZM101.705 40.2573C101.527 40.6133 101.327 40.956 101.135 41.3053C100.344 41.412 99.5906 41.7413 98.8119 41.9293C98.0746 42.1093 97.3226 42.2119 96.5719 42.3093C96.8319 41.7506 97.1146 41.1973 97.3893 40.6426C97.9079 40.6653 98.5293 40.4506 98.9293 40.38C99.9626 40.196 100.959 39.9626 101.96 39.708C101.872 39.8906 101.797 40.076 101.705 40.2573ZM157.7 0.710637C152.189 3.49064 146.117 4.60794 140.415 6.88128C136.161 8.57594 132.265 11.0066 128.871 14.0773C122.515 19.8306 117.977 27.72 116.692 36.224C113.219 39.6613 109.671 43.0199 105.656 45.8173C102.441 48.0559 98.9426 49.9693 95.2066 51.1813C94.6599 51.3586 94.1173 51.5053 93.5773 51.6346C95.7759 50.7293 98.0666 47.7106 99.2613 46.208C100.919 44.1253 102.296 41.832 103.36 39.392C105.729 33.9626 106.371 28.048 105.353 22.228C105.292 21.8813 104.813 21.8 104.588 22.0267C101.896 24.7293 98.9026 27.8467 96.3759 31.2627C96.3639 31.2733 96.3533 31.2946 96.3426 31.308C94.9933 33.1386 93.7839 35.0546 92.8253 37.0373C92.6493 37.1159 92.5439 37.3373 92.5879 37.5453C90.5426 42.0066 89.8159 46.8026 91.7519 51.7426C91.7252 51.7813 91.6933 51.8146 91.6653 51.852C91.6333 51.9013 91.6199 51.956 91.6079 52.0106C88.8586 52.428 86.1359 52.3973 83.2413 52.4226C82.6053 52.428 82.4506 53.3893 83.0879 53.5479C86.0319 54.2813 89.2093 54.0693 92.3213 53.324C92.4679 53.5213 92.7133 53.6493 93.0306 53.5866C96.8759 52.8213 99.8333 55.2826 103.256 56.536C106.091 57.5733 109.135 57.7853 112.119 57.428C118.451 56.6706 124.107 53.3866 129.456 50.1306C129.88 49.872 129.851 49.1093 129.308 49.0026C126.219 48.396 123.619 46.4667 120.509 45.9267C117.927 45.4787 115.276 45.808 112.757 46.46C109.763 47.2333 106.939 48.528 104.029 49.5547C102.408 50.128 100.763 50.5546 99.1039 50.9026C100.431 50.2853 101.699 49.6186 102.871 48.9399C107.98 45.9773 112.396 42.04 116.643 37.9573C116.828 38.0933 117.145 38.0667 117.2 37.7907C117.201 37.7787 117.205 37.7666 117.208 37.7546C126.66 35.7613 136.82 32.8359 144.655 27.0119C153.04 20.7786 156.911 11.476 158.64 1.43329C158.737 0.877293 158.224 0.445304 157.7 0.710637Z" fill="white"/>
<path d="M66.312 51.0213C66.2867 50.9947 66.2546 50.9719 66.2293 50.9453C65.892 48.8146 65.2027 46.7453 64.3493 44.7373C64.732 44.0799 64.94 43.3106 65.2106 42.6013C65.4826 41.8906 65.7533 41.1813 66.0253 40.4706C67.0253 43.7573 67.2546 47.2627 66.312 51.0213ZM61.796 47.1987C60.2853 45.6013 58.9773 43.8253 57.872 41.928C59.324 42.252 60.7973 42.5266 62.2693 42.6666C63.356 45.02 64.3186 47.412 65.1026 49.9293C63.9906 49.0307 62.7533 48.212 61.796 47.1987ZM56.96 40.2573C56.712 39.7627 56.4853 39.2586 56.2666 38.7533C56.7946 38.8786 57.3693 38.9306 57.7613 39.0386C58.8733 39.3466 59.952 39.7333 61.0266 40.1399C61.3053 40.6973 61.588 41.2533 61.8546 41.8133C60.288 41.364 58.6973 40.976 57.124 40.5573C57.072 40.456 57.012 40.3587 56.96 40.2573ZM56.128 37.5733C56.0933 37.4906 56.0346 37.416 55.9426 37.364C55.916 37.3493 55.8906 37.336 55.8653 37.3213C55.8093 37.2907 55.744 37.2813 55.6787 37.2706C55.0733 35.6346 54.624 33.9533 54.3173 32.2466C54.6666 32.3906 55.0466 32.4839 55.404 32.6013C56.0226 32.8026 56.644 32.9706 57.2706 33.1386C57.8586 34.212 58.452 35.2626 59.0093 36.2759C59.528 37.2159 60.0253 38.152 60.504 39.0866C60.0573 38.8813 59.608 38.6826 59.148 38.5013C58.5533 38.2653 57.952 38.0546 57.3386 37.8733C57.1493 37.8159 56.4133 37.6306 56.128 37.5733ZM53.8933 25.4666C54.5213 27.7106 55.5546 29.9093 56.6693 32.0186C56.3866 31.8853 56.108 31.7413 55.8186 31.616C55.284 31.388 54.712 31.044 54.1226 31.0267C53.8706 29.1893 53.788 27.3293 53.8933 25.4666ZM61.1586 31.2946C60.3053 32.3986 59.7333 33.9319 59.3893 35.2759C58.916 34.4666 58.4373 33.6426 57.972 32.808C57.9666 32.7373 57.9266 32.6787 57.868 32.624C56.2546 29.7213 54.824 26.6853 54.3853 23.6333C56.7733 26.036 59.136 28.5813 61.1586 31.2946ZM63.184 34.2893C62.7093 35.1653 62.3186 36.0893 61.92 37.0013C61.708 37.4839 61.4306 37.9826 61.2386 38.4946C60.7813 37.6693 60.2973 36.828 59.7906 35.9653C59.7973 35.956 59.8067 35.9559 59.812 35.9453C60.1667 35.1066 60.5093 34.2546 60.916 33.4399C61.156 32.9613 61.4267 32.4933 61.68 32.0186C62.212 32.7626 62.7133 33.5186 63.184 34.2893ZM65.6906 39.5119C65.324 40.4066 64.9573 41.3 64.5906 42.1946C64.3826 42.7053 64.1226 43.2267 63.9186 43.76C63.408 42.636 62.8506 41.5386 62.284 40.456C62.4106 40.3333 62.4413 40.0933 62.2573 39.9853C62.1586 39.928 62.0546 39.8826 61.956 39.828C61.868 39.6613 61.7826 39.4906 61.6933 39.3253C62.124 38.736 62.3333 37.9573 62.612 37.2933C62.9413 36.5107 63.2733 35.724 63.56 34.9226C64.4213 36.4013 65.132 37.9346 65.6906 39.5119ZM59.9253 52.956C56.436 54.492 53.48 56.1413 49.5546 56.2613C49.3773 56.2666 49.2053 56.2453 49.0293 56.2466C49.3573 55.768 49.6253 55.2213 49.9013 54.78C50.392 53.9946 50.8533 53.1973 51.2933 52.3853C54.2 52.76 57.128 53.0346 60.0467 52.908C60.0053 52.9253 59.9666 52.9386 59.9253 52.956ZM47.86 56.2119C47.3613 56.1826 46.8707 56.116 46.38 56.052C47.4147 54.896 48.216 53.4306 48.756 52.0413C48.7733 52.0426 48.7893 52.0453 48.8053 52.0466C49.328 52.1213 49.8533 52.1893 50.3787 52.2613C49.9173 52.9213 49.4693 53.5906 49.0413 54.2773C48.668 54.8746 48.1133 55.5186 47.86 56.2119ZM41.7853 54.9839C42.2626 54.5333 42.632 53.9693 43.028 53.4453C43.5093 52.8119 43.964 52.164 44.416 51.5106C45.556 51.6386 46.6986 51.772 47.8413 51.9253C47.4666 52.672 47.0773 53.408 46.608 54.1C46.184 54.7253 45.6946 55.2919 45.2226 55.8733C44.0573 55.6599 42.912 55.3546 41.7853 54.9839ZM36.0866 52.5399C36.3946 52.3213 36.608 51.9333 36.8573 51.6533C37.1013 51.3786 37.3733 51.1306 37.636 50.8746C39.6546 51.036 41.6706 51.2133 43.688 51.4293C43.2506 51.9333 42.812 52.4333 42.3933 52.956C41.9346 53.528 41.4213 54.0773 41.1026 54.7399C39.3893 54.1306 37.7213 53.3706 36.0866 52.5399ZM36.6866 50.8053C36.544 50.9453 36.3867 51.0666 36.2493 51.2106C35.9613 51.5133 35.592 51.8267 35.4893 52.2293C34.4106 51.668 33.3426 51.0866 32.2933 50.4853C33.7626 50.584 35.224 50.6933 36.6866 50.8053ZM31.08 49.7866C33.3293 49.012 35.3826 47.74 37.7066 47.1907C37.932 47.8893 38.2213 48.572 38.6173 49.1907C38.8106 49.4933 39.036 49.836 39.2986 50.128C38.9573 50.0973 38.616 50.0733 38.276 50.0453C38.2266 49.8306 37.944 49.664 37.7173 49.852C37.6653 49.8933 37.6213 49.944 37.5706 49.9866C35.4386 49.828 33.3 49.748 31.1506 49.828C31.128 49.8146 31.104 49.8 31.08 49.7866ZM40.3293 46.8853C40.5946 47.4466 41.0266 47.9746 41.356 48.4479C41.8306 49.1306 42.3373 49.9227 42.9453 50.524C42.1427 50.428 41.3386 50.336 40.5346 50.2533C40.532 50.248 40.536 50.2426 40.5333 50.2373C40.3213 49.6613 39.7813 49.2239 39.444 48.7066C39.0987 48.1786 38.828 47.6173 38.6093 47.028C39.1813 46.9386 39.7546 46.9013 40.3293 46.8853ZM42.96 47.036C43 47.084 43.0226 47.1333 43.068 47.1813C43.556 47.6946 43.976 48.1186 44.3346 48.7453C44.7266 49.4253 45.1026 50.3773 45.7733 50.872C45.384 50.824 44.9946 50.776 44.6066 50.728C44.536 50.6826 44.4587 50.6773 44.38 50.7C44.1907 50.676 44.0013 50.6533 43.8133 50.6293C43.8493 50.5387 43.8573 50.4373 43.792 50.3226C43.2986 49.4573 42.556 48.7147 41.98 47.8987C41.7627 47.592 41.56 47.228 41.3373 46.8826C41.88 46.9026 42.42 46.9653 42.96 47.036ZM48.932 48.5573C49.0053 48.584 49.0773 48.6093 49.1506 48.6346C49.332 49.2333 49.5613 49.8159 49.852 50.3733C50.0226 50.6999 50.2106 51.112 50.4706 51.4267C49.1986 51.2893 47.928 51.14 46.6573 50.9826C46.664 50.9733 46.676 50.9693 46.6827 50.9613C46.712 50.9173 46.7426 50.8747 46.7733 50.832C46.8693 50.6973 46.7733 50.4746 46.6147 50.4426C45.696 50.2533 45.244 48.8839 44.7827 48.1733C44.6 47.8906 44.3986 47.62 44.1613 47.3826C44.0973 47.3186 44.016 47.2573 43.9373 47.1946C45.6373 47.504 47.3133 47.9947 48.932 48.5573ZM60.0253 51.932C57.252 52.0053 54.4906 51.8226 51.7306 51.5493C51.8293 51.3066 51.6773 51.128 51.4787 51.0933C51.3653 50.6813 51.06 50.3187 50.84 49.932C50.676 49.644 50.52 49.352 50.36 49.06C53.6106 50.2067 56.7506 51.32 60.0253 51.932ZM37.492 31.7893C37.4986 31.764 37.5213 31.7533 37.524 31.7267C37.676 30.2733 37.86 28.6479 37.8986 27.0679C39.108 29.6039 40.0653 32.2719 40.7787 35.0346C39.688 33.9453 38.5906 32.8666 37.492 31.7893ZM20.0573 29.0666C23.1373 28.42 26.1466 27.1839 28.9866 25.8706C32.1573 28.5599 35.2453 31.3466 38.2533 34.2866C38.8773 34.896 39.5013 35.5093 40.128 36.1213C33.248 34.2133 26.356 32.4133 20.0573 29.0666ZM16.3613 26.888C16.2653 26.824 16.176 26.7547 16.0813 26.688C19.2986 25.9013 22.5493 24.5013 25.4746 22.9907C26.3786 23.7267 27.288 24.4559 28.18 25.2039C24.996 26.3253 21.732 27.148 18.5426 28.2267C17.808 27.8 17.076 27.3667 16.3613 26.888ZM6.22131 15.616C8.74931 15.6173 11.7946 15.0893 14.1706 14.1946C15.8053 15.4546 17.4493 16.6999 19.0866 17.9453C20.9773 19.3826 22.8266 20.8466 24.6586 22.3226C22.9626 22.94 21.2866 23.612 19.5866 24.2187C18.072 24.7587 16.296 25.0493 14.86 25.8173C11.1293 22.9839 8.33731 19.508 6.22131 15.616ZM5.55331 14.3333C5.25198 13.7266 4.98397 13.1026 4.71331 12.4786C6.69597 12.4959 8.91998 11.984 10.868 11.596C11.5706 12.1587 12.272 12.7213 12.9826 13.2733C12.1066 13.4413 11.2333 13.6387 10.3546 13.7853C8.96131 14.0213 7.54398 14.1093 6.15198 14.3399C5.98131 14.1933 5.71731 14.1786 5.55331 14.3333ZM1.80531 3.5706C4.27731 6.0746 6.92665 8.39065 9.65331 10.616C7.81065 10.644 5.85197 10.7066 4.16397 11.164C3.19864 8.73063 2.41998 6.1906 1.80531 3.5706ZM19.2266 8.88799C19.244 11.4667 19.2066 14.0453 19.4013 16.6187C17.888 15.464 16.372 14.3079 14.864 13.1453C14.8493 13.1279 14.8293 13.116 14.8093 13.1026C13.8346 12.3493 12.864 11.5906 11.8973 10.828C11.8426 10.708 11.7373 10.6187 11.5986 10.5933C8.46131 8.10666 5.38663 5.54397 2.45863 2.79997C7.9613 5.20797 13.7853 6.57599 19.2266 8.88799ZM22.1933 10.2786C22.244 13.1973 22.2853 16.26 22.6986 19.156C21.8826 18.5266 21.068 17.8946 20.248 17.2679C20.364 14.5946 20.1947 11.928 20.0773 9.25863C20.7907 9.57729 21.496 9.91861 22.1933 10.2786ZM27.8346 13.972C28.392 14.4346 28.908 14.9306 29.4306 15.42C29.316 18.36 28.9106 21.5986 29.4173 24.5026C28.4346 23.6866 27.4226 22.9053 26.4226 22.108C26.3706 21.96 26.2467 21.8413 26.0813 21.836C25.2267 21.156 24.3866 20.46 23.524 19.7907C23.684 16.8467 23.3733 13.7426 23.084 10.772C24.728 11.6813 26.324 12.7146 27.8346 13.972ZM30.008 24.864C30.6173 22.1173 30.3346 19.0187 30.2333 16.1547C31.112 17.0267 31.9213 17.948 32.7013 18.892C32.6866 21.5906 32.304 24.3933 32.44 27.08C31.6173 26.36 30.7933 25.6413 29.956 24.9399C29.9733 24.9146 30 24.8973 30.008 24.864ZM33.1653 27.6267C33.7893 25.2427 33.6813 22.4613 33.5373 19.928C34.3253 20.9533 35.0386 22.028 35.7173 23.124C35.32 25.1533 35.1293 27.2467 34.8866 29.2987C34.3026 28.756 33.7253 28.2053 33.1306 27.6759C33.14 27.6559 33.16 27.6507 33.1653 27.6267ZM36.4493 24.3533C36.5867 24.5933 36.7413 24.824 36.8733 25.0666C36.552 26.948 36.612 29.0733 36.6853 30.992C36.5186 30.8306 36.3573 30.664 36.192 30.5053C36.024 30.344 35.8493 30.1933 35.6813 30.0333C35.708 29.9813 35.7293 29.9253 35.7386 29.86C35.9653 28.0387 36.2773 26.1946 36.4493 24.3533ZM75.4253 52.4226C72.532 52.3973 69.808 52.428 67.0586 52.0106C67.048 51.956 67.0333 51.9013 67 51.852C66.9733 51.8146 66.9413 51.7813 66.9133 51.7426C71.416 40.2599 61.568 29.5467 54.0787 22.0267C53.8533 21.8 53.3747 21.8813 53.3147 22.228C52.2947 28.048 52.9373 33.9626 55.3053 39.392C55.576 40.0106 55.8666 40.62 56.176 41.2186C56.1986 41.3346 56.248 41.4453 56.3467 41.524C57.2227 43.172 58.24 44.7453 59.4053 46.208C60.6 47.7106 62.8893 50.7293 65.0893 51.6346C64.5493 51.5053 64.0066 51.3586 63.46 51.1813C59.724 49.9693 56.2253 48.0559 53.0106 45.8173C48.996 43.0199 45.448 39.6613 41.976 36.224C40.6893 27.72 36.152 19.8306 29.7946 14.0773C26.4013 11.0066 22.504 8.57595 18.252 6.88128C12.5493 4.60795 6.47731 3.49064 0.966643 0.710644C0.443976 0.445311 -0.0706983 0.8773 0.0253017 1.4333C1.75597 11.476 5.6253 20.7786 14.012 27.0119C21.8466 32.8359 32.0066 35.7613 41.4586 37.7547C41.4613 37.7667 41.464 37.7787 41.4666 37.7907C41.5213 38.0667 41.8373 38.0933 42.024 37.9573C46.2706 42.04 50.6866 45.9773 55.796 48.9399C56.968 49.6186 58.236 50.2853 59.5626 50.9026C57.9026 50.5546 56.2586 50.128 54.6373 49.5547C51.7266 48.528 48.904 47.2333 45.9093 46.46C43.3893 45.808 40.74 45.4787 38.1586 45.9267C35.048 46.4667 32.4466 48.396 29.3586 49.0026C28.816 49.1093 28.7867 49.872 29.2107 50.1306C34.5587 53.3866 40.216 56.6706 46.548 57.428C49.532 57.7853 52.5746 57.5733 55.4106 56.536C58.8333 55.2826 61.7893 52.8213 65.636 53.5866C65.9533 53.6493 66.1986 53.5213 66.344 53.324C69.4573 54.0693 72.6346 54.2813 75.5773 53.5479C76.216 53.3893 76.0613 52.428 75.4253 52.4226Z" fill="white"/>
<path d="M87.5147 28.9253C84.3894 24.76 80.8533 30.1973 80.128 33.612C79.456 31.4373 78.244 28.3574 75.8734 28.0267C73.872 27.748 72.376 29.6907 71.948 31.424C71.252 34.2427 72.6493 37.3853 73.72 39.9147C75.2293 43.4853 77.2867 46.736 79.8454 49.6414C79.968 49.78 80.1374 49.784 80.2814 49.7187C80.588 49.7627 80.9227 49.64 81.0467 49.264C82.56 44.6774 84.484 40.32 86.6907 36.028C87.7747 33.9174 89.1854 31.152 87.5147 28.9253Z" fill="white"/>
</svg>
